grf
version=1
nRows=12
nColumns=37
inDegrees=no
endheader
time	ground_force_1_vx	ground_force_1_vy	ground_force_1_vz	ground_force_1_px	ground_force_1_py	ground_force_1_pz	ground_moment_1_mx	ground_moment_1_my	ground_moment_1_mz	ground_force_2_vx	ground_force_2_vy	ground_force_2_vz	ground_force_2_px	ground_force_2_py	ground_force_2_pz	ground_moment_2_mx	ground_moment_2_my	ground_moment_2_mz	ground_force_3_vx	ground_force_3_vy	ground_force_3_vz	ground_force_3_px	ground_force_3_py	ground_force_3_pz	ground_moment_3_mx	ground_moment_3_my	ground_moment_3_mz	ground_force_4_vx	ground_force_4_vy	ground_force_4_vz	ground_force_4_px	ground_force_4_py	ground_force_4_pz	ground_moment_4_mx	ground_moment_4_my	ground_moment_4_mz
      0.00000000	      0.00000000	     -0.00000000	      0.00000000	      0.00000000	      0.00000000	      0.00000000	      0.00000000	      0.00000000	      0.00000000	     -5.64253473	     60.09621429	   -417.01742554	   -259.78380173	  -1138.52429782	      0.00000000	      0.00000000	      0.00000000	   3247.82849010	      6.01057902	    -61.05267005	   -364.42675781	   -293.00786330	   -729.57615430	      0.00000000	      0.00000000	     -0.00000000	  -3652.59089313	      0.00000000	     -0.00000000	      0.00000000	      0.00000000	      0.00000000	      0.00000000	      0.00000000	      0.00000000	      0.00000000
      0.01000000	      0.00000000	     -0.00000000	      0.00000000	      0.00000000	      0.00000000	      0.00000000	      0.00000000	      0.00000000	      0.00000000	     -5.24057245	     59.76177979	   -417.45993042	   -259.80376286	  -1139.40220312	      0.00000000	      0.00000000	      0.00000000	   3300.79690269	      6.09891213	    -61.22900062	   -363.37942505	   -293.29491710	   -729.45338285	      0.00000000	      0.00000000	     -0.00000000	  -3678.15374822	      0.00000000	     -0.00000000	      0.00000000	      0.00000000	      0.00000000	      0.00000000	      0.00000000	      0.00000000	      0.00000000
      0.02000000	      0.00000000	     -0.00000000	      0.00000000	      0.00000000	      0.00000000	      0.00000000	      0.00000000	      0.00000000	      0.00000000	     -5.59810877	     59.58397675	   -416.66461182	   -261.40427997	  -1138.29628852	      0.00000000	      0.00000000	      0.00000000	   3270.46318667	      5.98748434	    -61.31789832	   -363.11767578	   -293.50708345	   -730.12260416	      0.00000000	     -0.00000000	     -0.00000000	  -3715.36772815	      0.00000000	     -0.00000000	      0.00000000	      0.00000000	      0.00000000	      0.00000000	      0.00000000	      0.00000000	      0.00000000
      0.03000000	      0.00000000	     -0.00000000	      0.00000000	      0.00000000	      0.00000000	      0.00000000	      0.00000000	      0.00000000	      0.00000000	     -5.37471104	     59.51616287	   -416.13339233	   -262.06694246	  -1138.52131362	      0.00000000	      0.00000000	      0.00000000	   3375.94924900	      5.63282194	    -61.07414295	   -363.64508057	   -293.28944542	   -729.36133511	      0.00000000	      0.00000000	     -0.00000000	  -3503.57672796	      0.00000000	     -0.00000000	      0.00000000	      0.00000000	      0.00000000	      0.00000000	      0.00000000	      0.00000000	      0.00000000
      0.04000000	      0.00000000	     -0.00000000	      0.00000000	      0.00000000	      0.00000000	      0.00000000	      0.00000000	      0.00000000	      0.00000000	     -5.41983271	     60.14220810	   -416.04595947	   -262.10401442	  -1137.78080545	      0.00000000	      0.00000000	     -0.00000000	   3107.51184594	      5.58787291	    -60.78628207	   -363.11416626	   -293.20704604	   -730.27359484	      0.00000000	      0.00000000	     -0.00000000	  -3575.10958904	      0.00000000	     -0.00000000	      0.00000000	      0.00000000	      0.00000000	      0.00000000	      0.00000000	      0.00000000	      0.00000000
      0.05000000	      0.00000000	     -0.00000000	      0.00000000	      0.00000000	      0.00000000	      0.00000000	      0.00000000	      0.00000000	      0.00000000	     -4.99432468	     59.64869308	   -417.55133057	   -262.17641304	  -1138.33488541	      0.00000000	      0.00000000	      0.00000000	   3281.13469810	      5.58877409	    -61.27465106	   -362.33795166	   -293.91402872	   -730.62340017	      0.00000000	      0.00000000	     -0.00000000	  -3579.74020778	      0.00000000	     -0.00000000	      0.00000000	      0.00000000	      0.00000000	      0.00000000	      0.00000000	      0.00000000	      0.00000000
      0.06000000	      0.00000000	     -0.00000000	      0.00000000	      0.00000000	      0.00000000	      0.00000000	      0.00000000	      0.00000000	      0.00000000	     -5.28879452	     60.11933517	   -418.17202759	   -262.41080707	  -1138.38376028	      0.00000000	      0.00000000	      0.00000000	   3187.33145200	      5.78948108	    -60.92172292	   -363.29519653	   -293.94035317	   -729.51582893	      0.00000000	      0.00000000	     -0.00000000	  -3649.13996897	      0.00000000	     -0.00000000	      0.00000000	      0.00000000	      0.00000000	      0.00000000	      0.00000000	      0.00000000	      0.00000000
      0.07000000	      0.00000000	     -0.00000000	      0.00000000	      0.00000000	      0.00000000	      0.00000000	      0.00000000	      0.00000000	      0.00000000	     -4.59127712	     60.45422745	   -417.02731323	   -262.77956855	  -1138.19609904	      0.00000000	      0.00000000	      0.00000000	   3175.69112397	      5.76619572	    -60.58867696	   -362.50494385	   -294.37959535	   -730.16553299	      0.00000000	     -0.00000000	     -0.00000000	  -3570.37609412	      0.00000000	     -0.00000000	      0.00000000	      0.00000000	      0.00000000	      0.00000000	      0.00000000	      0.00000000	      0.00000000
      0.08000000	      0.00000000	     -0.00000000	      0.00000000	      0.00000000	      0.00000000	      0.00000000	      0.00000000	      0.00000000	      0.00000000	     -4.70176935	     59.83053207	   -417.20999146	   -263.69217045	  -1138.36826118	      0.00000000	      0.00000000	     -0.00000000	   3297.43296369	      5.65582028	    -60.96762134	   -362.59802246	   -294.63393272	   -729.83629204	      0.00000000	     -0.00000000	     -0.00000000	  -3603.22564194	      0.00000000	     -0.00000000	      0.00000000	      0.00000000	      0.00000000	      0.00000000	      0.00000000	      0.00000000	      0.00000000
      0.09000000	      0.00000000	     -0.00000000	      0.00000000	      0.00000000	      0.00000000	      0.00000000	      0.00000000	      0.00000000	      0.00000000	     -5.15256262	     59.76062393	   -417.44833374	   -263.63061338	  -1138.71323144	      0.00000000	      0.00000000	      0.00000000	   3311.42697363	      5.94595570	    -60.58635382	   -361.37194824	   -294.41147637	   -731.21949312	      0.00000000	      0.00000000	     -0.00000000	  -3605.59629672	      0.00000000	     -0.00000000	      0.00000000	      0.00000000	      0.00000000	      0.00000000	      0.00000000	      0.00000000	      0.00000000
      0.10000000	      0.00000000	     -0.00000000	      0.00000000	      0.00000000	      0.00000000	      0.00000000	      0.00000000	      0.00000000	      0.00000000	     -5.06342363	     59.65270233	   -417.26483154	   -263.95712113	  -1138.06201785	      0.00000000	      0.00000000	      0.00000000	   3246.63980085	      5.65334028	    -60.67961170	   -361.99584961	   -293.93979123	   -730.39051670	      0.00000000	      0.00000000	     -0.00000000	  -3513.81203358	      0.00000000	     -0.00000000	      0.00000000	      0.00000000	      0.00000000	      0.00000000	      0.00000000	      0.00000000	      0.00000000
      0.11000000	      0.00000000	     -0.00000000	      0.00000000	      0.00000000	      0.00000000	      0.00000000	      0.00000000	      0.00000000	      0.00000000	     -5.03879404	     60.05560684	   -416.82479858	   -264.46241367	  -1137.49593459	      0.00000000	      0.00000000	      0.00000000	   3317.58872145	      5.42988915	    -60.59157991	   -360.66213989	   -294.48062131	   -730.43987949	      0.00000000	      0.00000000	     -0.00000000	  -3447.15282635	      0.00000000	     -0.00000000	      0.00000000	      0.00000000	      0.00000000	      0.00000000	      0.00000000	      0.00000000	      0.00000000
